<?xml version="1.0" ?>
<!-- Uploaded to: SVG Repo, www.svgrepo.com, Generator: SVG Repo Mixer Tools -->
<svg width="800px" height="800px" viewBox="0 0 20 20" version="1.1" xmlns="http://www.w3.org/2000/svg">
<g id="layer1">
<path d="M 6.5 1 A 6.5 6.5 0 0 0 0 7.5 A 6.5 6.5 0 0 0 6.5 14 A 6.5 6.5 0 0 0 13 7.5 A 6.5 6.5 0 0 0 6.5 1 z M 6.5 2 A 5.5 5.5 0 0 1 12 7.5 A 5.5 5.5 0 0 1 6.5 13 A 5.5 5.5 0 0 1 1 7.5 A 5.5 5.5 0 0 1 6.5 2 z M 7.4785156 4 L 7.0859375 4.0253906 L 6.6992188 4.0917969 L 6.3242188 4.203125 L 5.9609375 4.3554688 L 5.6191406 4.546875 L 5.3007812 4.7753906 L 5.0097656 5.0390625 L 4.75 5.3339844 L 4.5253906 5.6542969 L 4.3359375 6 L 3.4726562 6 L 3 7 L 4.0351562 7 L 4.0019531 7.3339844 L 4.0019531 7.6660156 L 4.0351562 8 L 3.4726562 8 L 3 9 L 4.3359375 9 L 4.5253906 9.3457031 L 4.75 9.6660156 L 5.0097656 9.9609375 L 5.3007812 10.224609 L 5.6191406 10.453125 L 5.9609375 10.646484 L 6.3242188 10.796875 L 6.6992188 10.908203 L 7.0859375 10.978516 L 7.4785156 11 L 7.8710938 10.982422 L 8.2578125 10.917969 L 8.6347656 10.810547 L 9 10.664062 L 8.5703125 9.7597656 L 8.25 9.8828125 L 7.9199219 9.9667969 L 7.5800781 10 L 7.2363281 9.9863281 L 6.8984375 9.9277344 L 6.5742188 9.8242188 L 6.265625 9.6738281 L 5.9785156 9.4863281 L 5.7226562 9.2597656 L 5.4980469 9 L 7.2871094 9 L 7.7617188 8 L 5.0488281 8 L 5.0058594 7.6660156 L 5.0058594 7.3339844 L 5.0488281 7 L 7.7382812 7 L 8.2109375 6 L 5.4980469 6 L 5.7226562 5.7402344 L 5.9785156 5.5136719 L 6.265625 5.3261719 L 6.5742188 5.1757812 L 6.8984375 5.0722656 L 7.2363281 5.0136719 L 7.5800781 5 L 7.9199219 5.0332031 L 8.25 5.1171875 L 8.5703125 5.2402344 L 9 4.3378906 L 8.6347656 4.1894531 L 8.2578125 4.0820312 L 7.8710938 4.0195312 L 7.4785156 4 z M 13.851562 6.0117188 C 13.918402 6.3413021 13.95476 6.6799884 13.976562 7.0234375 C 16.817636 7.2705387 18.998573 9.6482024 19 12.5 C 19 15.537566 16.537566 18 13.5 18 C 11.326389 17.996967 9.358456 16.714098 8.4785156 14.726562 C 8.1524476 14.816209 7.8185092 14.884791 7.4765625 14.929688 C 8.4670413 17.387377 10.850229 18.997807 13.5 19 C 17.089851 19 20 16.089851 20 12.5 C 19.998829 9.047604 17.298907 6.1984464 13.851562 6.0117188 z M 14.478516 9 L 14.085938 9.0253906 L 13.832031 9.0683594 C 13.746712 9.4662656 13.62451 9.8506013 13.478516 10.222656 L 13.574219 10.175781 L 13.898438 10.072266 L 14.236328 10.013672 L 14.580078 10 L 14.919922 10.033203 L 15.25 10.117188 L 15.570312 10.240234 L 16 9.3378906 L 15.634766 9.1894531 L 15.257812 9.0820312 L 14.871094 9.0195312 L 14.478516 9 z M 13.125 11 C 12.937924 11.35221 12.72117 11.683676 12.482422 12 L 14.738281 12 L 15.210938 11 L 13.125 11 z M 12.005859 12.570312 C 11.48744 13.132714 10.88766 13.616207 10.220703 14 L 11.335938 14 L 11.525391 14.345703 L 11.75 14.666016 L 12.009766 14.960938 L 12.300781 15.224609 L 12.619141 15.453125 L 12.960938 15.646484 L 13.324219 15.796875 L 13.699219 15.908203 L 14.085938 15.978516 L 14.478516 16 L 14.871094 15.982422 L 15.257812 15.917969 L 15.634766 15.810547 L 16 15.664062 L 15.570312 14.759766 L 15.25 14.882812 L 14.919922 14.966797 L 14.580078 15 L 14.236328 14.986328 L 13.898438 14.927734 L 13.574219 14.824219 L 13.265625 14.673828 L 12.978516 14.486328 L 12.722656 14.259766 L 12.498047 14 L 14.287109 14 L 14.761719 13 L 12.048828 13 L 12.005859 12.666016 L 12.005859 12.570312 z " style="fill:#222222; fill-opacity:1; stroke:none; stroke-width:0px;"/>
</g>
</svg>